<?xml version="1.0" encoding="utf-8"?>
<!-- Svg Vector Icons : http://www.onlinewebfonts.com/icon -->
<!DOCTYPE svg PUBLIC "-//W3C//DTD SVG 1.1//EN" "http://www.w3.org/Graphics/SVG/1.1/DTD/svg11.dtd">
<svg version="1.1" xmlns="http://www.w3.org/2000/svg" xmlns:xlink="http://www.w3.org/1999/xlink" x="0px" y="0px" viewBox="0 0 1000 1000" enable-background="new 0 0 1000 1000" xml:space="preserve">
<metadata> Svg Vector Icons : http://www.onlinewebfonts.com/icon </metadata>
<g><g transform="translate(0.000000,511.000000) scale(0.100000,-0.100000)"><path d="M4401.4,4984.3C3854.7,4882.2,3342.1,4653.1,2859,4297c-238.2-176.9-707.7-657.8-891.4-914.1c-1397.2-1939.3-1367.8-4754.2,70.3-6655c133.8-176.9,544.4-598.8,719-737.2c328.9-260.8,748.5-496.7,1111.4-623.8c328.9-115.7,381.1-52.2,249.5,297.1C3705-3238.1,3847.9-1927,4528.4-563.8c102.1,208.7,301.7,560.3,440,784.8c558,902.7,780.3,1528.8,809.8,2290.9c24.9,660.1-106.6,1218-426.4,1791.9c-138.3,251.8-381,580.7-478.6,648.7C4784.7,5016,4628.2,5027.4,4401.4,4984.3z"/><path d="M5973.3,4859.5c-95.3-38.6-86.2-113.4,40.8-365.2c530.8-1059.3,592-2143.5,190.5-3309.4c-122.5-353.9-356.1-818.8-655.5-1304.2c-514.9-830.2-802.9-1522-934.5-2245.5c-61.2-333.4-56.7-1009.4,6.8-1304.2c93-428.7,331.2-930,503.5-1063.8c70.3-54.4,95.3-59,272.2-56.7c417.4,4.5,1018.5,220,1522,548.9c458.2,297.2,914.1,753.1,1240.7,1240.7c852.8,1272.5,1125,3046.2,710,4609.1C8477.4,3079,7513.4,4278.9,6331.6,4764.2C6059.4,4877.7,6034.5,4884.5,5973.3,4859.5z"/></g></g>
</svg>